<?xml version="1.0" standalone="no"?>
<!DOCTYPE svg PUBLIC "-//W3C//DTD SVG 20010904//EN"
 "http://www.w3.org/TR/2001/REC-SVG-20010904/DTD/svg10.dtd">
<svg version="1.0" xmlns="http://www.w3.org/2000/svg"
 width="512.000000pt" height="512.000000pt" viewBox="0 0 512.000000 512.000000"
 preserveAspectRatio="xMidYMid meet">
<metadata>
Created by potrace 1.11, written by Peter Selinger 2001-2013
</metadata>
<g transform="translate(0.000000,512.000000) scale(0.100000,-0.100000)"
fill="#000000" stroke="none">
<path d="M2289 4956 c-2 -2 -49 -7 -104 -10 -55 -4 -109 -9 -120 -11 -11 -2
-39 -6 -62 -9 -65 -8 -148 -35 -185 -59 l-33 -23 -2 -161 c-2 -190 9 -251 68
-371 71 -142 200 -250 374 -312 29 -10 30 -12 28 -67 -1 -43 -6 -60 -20 -70
-10 -7 -28 -20 -40 -29 -37 -27 -63 -97 -63 -168 0 -55 -3 -67 -23 -83 -40
-33 -47 -65 -47 -227 l0 -152 -28 -21 c-49 -36 -66 -86 -68 -194 -1 -90 -3
-98 -33 -139 -17 -24 -34 -60 -37 -80 -5 -31 -12 -39 -43 -50 -82 -29 -161
-106 -204 -197 l-22 -48 -3 -1000 c-2 -672 0 -1012 7 -1036 31 -103 206 -192
474 -239 151 -26 198 -30 363 -35 78 -2 145 -5 150 -6 5 -1 11 -1 14 0 3 1 36
4 74 6 115 6 196 15 316 36 121 21 313 80 343 107 9 8 17 12 17 8 0 -21 102
92 111 123 7 24 9 362 7 1031 l-3 995 -23 58 c-31 75 -108 154 -184 187 -50
22 -57 29 -62 61 -3 19 -20 55 -38 80 -29 40 -32 50 -32 124 -1 44 3 86 9 94
7 11 7 13 -2 8 -7 -5 -14 4 -18 23 -4 16 -24 49 -46 72 l-39 42 0 149 c0 155
-6 182 -49 221 -17 16 -21 31 -21 84 0 83 -25 138 -83 180 -39 28 -43 34 -41
69 1 21 3 48 3 61 1 14 7 22 19 22 26 0 159 66 206 102 102 79 180 191 219
313 19 61 22 92 22 252 0 171 -1 183 -20 197 -30 22 -140 54 -225 65 -41 6
-95 13 -120 16 -47 7 -675 16 -681 11z m486 -80 c83 -3 166 -8 185 -10 19 -3
58 -7 85 -10 28 -3 59 -8 70 -10 11 -2 39 -7 63 -11 40 -6 58 -24 27 -26 -8
-1 -18 -2 -22 -3 -5 -1 -33 -6 -63 -10 -30 -5 -64 -10 -75 -12 -142 -27 -773
-26 -985 1 -91 11 -170 29 -163 36 4 4 24 11 43 14 19 3 42 8 50 10 8 2 42 7
75 10 33 4 75 8 93 10 18 3 95 7 170 11 75 3 138 7 139 7 2 3 139 -1 308 -7z
m-845 -146 c19 -6 53 -13 75 -15 22 -3 50 -7 63 -10 131 -25 838 -26 967 -1
11 2 41 6 66 10 25 4 59 9 75 12 58 12 59 11 59 -29 l0 -38 -56 -3 c-55 -3
-111 -29 -132 -63 -6 -9 -19 -4 -52 22 -78 59 -179 56 -250 -6 -29 -25 -36
-28 -41 -15 -8 22 -102 66 -139 66 -45 0 -96 -19 -126 -46 -32 -30 -34 -30
-78 5 -68 54 -177 50 -245 -9 -26 -23 -35 -27 -39 -16 -10 26 -113 68 -155 64
l-39 -3 1 42 c0 24 3 43 6 43 3 0 21 -5 40 -10z m60 -166 c33 -20 60 -63 60
-97 0 -16 10 -31 28 -42 15 -10 24 -14 20 -10 -5 5 1 14 12 22 12 9 20 26 20
43 0 19 11 42 29 62 26 30 35 33 84 33 67 0 100 -25 116 -89 13 -54 32 -72 60
-56 12 6 21 19 21 29 0 92 102 150 181 104 30 -18 59 -67 59 -102 0 -11 7 -24
16 -29 19 -10 53 -5 55 9 1 5 3 14 4 19 1 6 3 19 4 31 0 11 5 17 11 14 5 -3 7
0 5 7 -3 8 6 25 21 38 20 20 36 25 79 25 66 0 102 -29 112 -87 11 -69 82 -86
83 -20 1 60 58 112 123 112 36 0 37 -1 37 -39 0 -59 -35 -160 -78 -227 -70
-108 -188 -191 -312 -220 -78 -19 -496 -17 -568 2 -122 32 -238 115 -302 214
-54 85 -103 253 -76 264 24 10 69 5 96 -10z m775 -639 l0 -30 -205 0 -204 0 1
23 c0 12 1 26 2 31 1 6 86 9 204 8 l202 -2 0 -30z m80 -155 c27 -22 45 -66 45
-110 l0 -40 -331 0 -331 0 4 55 c5 62 25 91 71 103 16 4 140 7 277 7 195 -1
252 -4 265 -15z m104 -268 c5 -8 8 -72 8 -143 l0 -128 -397 -1 -396 0 -1 130
c0 92 3 135 12 143 19 19 762 18 774 -1z m72 -400 c28 -25 31 -33 31 -87 0
-33 0 -67 -1 -75 -1 -13 -63 -15 -491 -15 -428 0 -490 2 -491 15 -1 8 -1 42
-1 75 1 54 4 63 32 88 l30 27 430 0 430 0 31 -28z m74 -302 c13 -12 25 -29 28
-39 4 -15 -37 -16 -562 -15 -611 0 -588 -2 -539 51 12 13 35 23 57 25 20 2
251 2 514 2 l478 -1 24 -23z m-785 -161 c879 4 875 4 929 -20 48 -20 139 -105
126 -117 -7 -8 -1606 -8 -1611 -1 -8 14 78 98 118 115 58 24 118 30 283 26 77
-1 147 -3 155 -3z m1081 -231 c1 -7 2 -77 3 -155 1 -122 -1 -143 -14 -144 -8
-1 -26 -2 -40 -4 -14 -1 -61 -6 -105 -10 -44 -3 -98 -9 -120 -11 -236 -24
-911 -24 -1120 1 -16 2 -68 6 -115 10 -47 4 -94 9 -105 10 -11 2 -27 4 -36 4
-13 1 -15 22 -13 154 1 83 2 153 3 155 0 1 375 2 831 2 657 0 830 -3 831 -12z
m-1486 -393 c44 -4 98 -9 120 -11 288 -26 859 -22 1180 10 28 3 82 8 120 11
l70 7 0 -170 c0 -94 -3 -173 -6 -177 -8 -7 -27 -11 -104 -20 -33 -4 -68 -9
-79 -11 -10 -2 -53 -6 -94 -10 -42 -3 -83 -7 -93 -9 -117 -23 -758 -23 -939
-1 -14 2 -59 7 -100 11 -41 4 -83 9 -94 11 -10 2 -44 6 -75 10 -91 10 -86 0
-86 194 l-1 172 51 -6 c27 -2 86 -8 130 -11z m-85 -429 c79 -10 128 -16 185
-21 33 -3 78 -7 100 -10 143 -17 548 -22 745 -10 147 10 212 15 250 20 19 2
64 7 100 11 36 3 72 8 81 9 9 2 38 6 65 10 l49 6 0 -170 c0 -93 -2 -172 -5
-174 -3 -3 -23 -8 -45 -11 -22 -4 -56 -11 -75 -16 -19 -5 -60 -12 -90 -16 -30
-4 -64 -8 -75 -10 -11 -1 -42 -6 -70 -9 -27 -3 -61 -8 -74 -10 -149 -25 -700
-26 -841 0 -14 2 -43 6 -65 9 -118 14 -324 55 -326 65 -1 3 -2 82 -3 174 l-2
168 31 -5 c16 -3 46 -8 65 -10z m1575 -570 c0 -90 -2 -167 -5 -169 -3 -3 -18
-8 -35 -11 -16 -3 -69 -14 -117 -25 -48 -11 -105 -22 -125 -25 -21 -3 -49 -7
-62 -10 -13 -3 -49 -8 -80 -12 -31 -3 -65 -8 -76 -10 -113 -22 -602 -22 -711
0 -12 2 -45 7 -75 11 -30 4 -85 13 -124 21 -38 8 -84 17 -101 20 -17 3 -60 13
-95 23 l-64 18 0 161 c0 104 3 162 10 162 5 0 66 -11 135 -24 190 -37 348 -54
560 -61 58 -2 107 -4 110 -5 3 -1 10 -1 15 0 6 1 46 3 90 5 104 4 273 15 305
20 44 6 104 14 150 20 79 10 196 31 250 44 19 5 37 9 40 10 3 1 5 -73 5 -163z
m0 -410 c-1 -103 -5 -149 -14 -160 -50 -60 -247 -127 -471 -161 -120 -18 -395
-24 -555 -12 -155 11 -345 42 -345 55 0 4 -15 7 -33 8 -43 1 -175 57 -217 92
l-33 28 -2 152 c-1 103 2 152 9 152 6 0 29 -5 51 -11 43 -10 65 -16 105 -24
14 -3 36 -8 50 -11 48 -10 148 -26 240 -38 187 -25 475 -25 710 0 84 8 336 52
420 72 41 10 77 15 80 10 3 -4 5 -72 5 -152z"/>
</g>
</svg>
